HIERARCHY
ROOT hip
{
	OFFSET 0.00000 0.00000 0.00000
	CHANNELS 6 Xposition Yposition Zposition Zrotation Yrotation Xrotation 
	JOINT lhipjoint
	{
		OFFSET 0 0 0
		CHANNELS 3 Zrotation Yrotation Xrotation
		JOINT lfemur
		{
			OFFSET 1.57314 -1.85774 0.63783
			CHANNELS 3 Zrotation Yrotation Xrotation
			JOINT ltibia
			{
				OFFSET 2.57982 -7.08799 0.00000
				CHANNELS 3 Zrotation Yrotation Xrotation
				JOINT lfoot
				{
					OFFSET 2.63993 -7.25315 0.00000
					CHANNELS 3 Zrotation Yrotation Xrotation
					JOINT ltoes
					{
						OFFSET 0.16864 -0.46332 2.12791
						CHANNELS 3 Zrotation Yrotation Xrotation
						End Site
						{
							OFFSET 0.00000 -0.00000 1.09718
						}
					}
				}
			}
		}
	}
	JOINT rhipjoint
	{
		OFFSET 0 0 0
		CHANNELS 3 Zrotation Yrotation Xrotation
		JOINT rfemur
		{
			OFFSET -1.56006 -1.85774 0.63784
			CHANNELS 3 Zrotation Yrotation Xrotation
			JOINT rtibia
			{
				OFFSET -2.54246 -6.98536 0.00000
				CHANNELS 3 Zrotation Yrotation Xrotation
				JOINT rfoot
				{
					OFFSET -2.65791 -7.30256 0.00000
					CHANNELS 3 Zrotation Yrotation Xrotation
					JOINT rtoes
					{
						OFFSET -0.18435 -0.50650 2.16316
						CHANNELS 3 Zrotation Yrotation Xrotation
						End Site
						{
							OFFSET -0.00000 -0.00000 1.11780
						}
					}
				}
			}
		}
	}
	JOINT lowerback
	{
		OFFSET 0 0 0
		CHANNELS 3 Zrotation Yrotation Xrotation
		JOINT upperback
		{
			OFFSET -0.00136 1.92812 -0.29638
			CHANNELS 3 Zrotation Yrotation Xrotation
			JOINT thorax
			{
				OFFSET -0.00528 1.96223 -0.02928
				CHANNELS 3 Zrotation Yrotation Xrotation
				JOINT lowerneck
				{
					OFFSET 0 0 0
					CHANNELS 3 Zrotation Yrotation Xrotation
					JOINT upperneck
					{
						OFFSET -0.01015 1.75586 0.07797
						CHANNELS 3 Zrotation Yrotation Xrotation
						JOINT head
						{
							OFFSET 0.05540 1.72452 0.04558
							CHANNELS 3 Zrotation Yrotation Xrotation
							End Site
							{
								OFFSET 0.02170 1.79958 0.00864
							}
						}
					}
				}
				JOINT lclavicle
				{
					OFFSET 0 0 0
					CHANNELS 3 Zrotation Yrotation Xrotation
					JOINT lhumerus
					{
						OFFSET 3.16292 1.29277 -0.65728
						CHANNELS 3 Zrotation Yrotation Xrotation
						JOINT lradius
						{
							OFFSET 5.52302 -0.00000 -0.00000
							CHANNELS 3 Zrotation Yrotation Xrotation
							JOINT lwrist
							{
								OFFSET 3.58675 -0.00000 -0.00000
								CHANNELS 3 Zrotation Yrotation Xrotation
								JOINT lhand
								{
									OFFSET 0 0 0
									CHANNELS 3 Zrotation Yrotation Xrotation
									JOINT lfingers
									{
										OFFSET 0.53641 -0.00000 -0.00000
										CHANNELS 3 Zrotation Yrotation Xrotation
										End Site
										{
											OFFSET 0.43247 -0.00000 -0.00000
										}
									}
								}
								JOINT lthumb
								{
									OFFSET 0 0 0
									CHANNELS 3 Zrotation Yrotation Xrotation
									End Site
									{
										OFFSET 0.43907 -0.00000 0.43907
									}
								}
							}
						}
					}
				}
				JOINT rclavicle
				{
					OFFSET 0 0 0
					CHANNELS 3 Zrotation Yrotation Xrotation
					JOINT rhumerus
					{
						OFFSET -3.08296 1.43376 -0.52927
						CHANNELS 3 Zrotation Yrotation Xrotation
						JOINT rradius
						{
							OFFSET -5.84780 -0.00000 0.00000
							CHANNELS 3 Zrotation Yrotation Xrotation
							JOINT rwrist
							{
								OFFSET -3.62717 -0.00000 -0.00000
								CHANNELS 3 Zrotation Yrotation Xrotation
								JOINT rhand
								{
									OFFSET 0 0 0
									CHANNELS 3 Zrotation Yrotation Xrotation
									JOINT rfingers
									{
										OFFSET -0.65052 -0.00000 -0.00000
										CHANNELS 3 Zrotation Yrotation Xrotation
										End Site
										{
											OFFSET -0.52446 -0.00000 -0.00000
										}
									}
								}
								JOINT rthumb
								{
									OFFSET 0 0 0
									CHANNELS 3 Zrotation Yrotation Xrotation
									End Site
									{
										OFFSET -0.53247 -0.00000 0.53247
									}
								}
							}
						}
					}
				}
			}
		}
	}
}
MOTION
Frames: 13
Frame Time: 0.033333
-0.1682 17.4629 -24.3963 2.2959 -29.0862 3.4206 -0.0000 0.0000 -0.0000 -28.3456 -1.8208 5.3037 0.8116 5.6671 15.7197 0.5087 4.5963 -14.6091 1.4244 -8.3834 -23.9626 -0.0000 -0.0000 -0.0000 12.0384 17.6825 -22.6799 -4.4238 -10.8448 34.2180 0.0779 -13.9533 -9.3226 0.0859 2.2237 -6.2056 -3.7749 -1.4253 10.7109 -1.1193 -2.3055 2.2332 1.2271 -1.1614 -3.3307 0.2928 2.5064 -2.4792 1.4212 2.9994 6.6396 0.5689 1.4170 2.5134 0.0000 -0.0000 0.0000 -78.2957 -16.8853 28.8267 16.5386 -25.6286 -4.2413 0.0000 0.0000 -4.8833 34.8476 17.5598 11.8617 -6.8581 -0.0000 0.0000 7.2568 49.9595 0.2466 0.0000 0.0000 0.0000 84.7127 -4.0135 23.0440 -12.2297 19.8781 -2.3896 0.0000 0.0000 18.2734 -17.2477 14.5218 -4.5912 6.8581 0.0000 0.0000 6.3034 -13.7191 4.6176
-0.4361 17.4128 -24.1849 2.3285 -28.9746 3.3857 -0.0000 0.0000 -0.0000 -28.1909 -1.5537 6.3353 0.7101 5.4669 15.0597 0.4574 4.4476 -14.1720 1.4457 -8.3516 -23.8860 -0.0000 -0.0000 -0.0000 11.9924 17.7627 -22.4181 -3.9460 -10.2473 31.9760 0.1105 -14.3163 -9.5424 0.0530 2.2360 -6.2357 -3.7463 -1.5296 10.6133 -1.0728 -2.4376 2.2344 1.2643 -1.2271 -3.2681 0.3075 2.5046 -3.0062 1.2606 2.9452 6.9183 0.4521 1.4270 2.6760 -0.0000 0.0000 -0.0000 -78.3128 -17.3894 30.1676 17.0444 -26.3226 -4.4479 -0.0000 -0.0000 -5.9724 34.7654 17.3218 11.6694 -6.8464 0.0000 -0.0000 7.1324 49.5174 0.2098 0.0000 0.0000 0.0000 84.5613 -4.3625 22.3286 -11.9753 19.4662 -2.3232 0.0000 0.0000 18.3987 -17.1854 14.3784 -4.5320 6.8464 0.0000 0.0000 6.3101 -13.8243 4.6084
-0.5838 17.3198 -24.0874 2.4474 -29.2014 3.4843 -0.0000 0.0000 -0.0000 -28.1103 -1.2832 7.2214 0.6036 5.2739 14.4055 0.4438 3.9387 -13.6655 1.4943 -8.5097 -24.3536 -0.0000 -0.0000 -0.0000 11.9866 17.9408 -22.2947 -3.5231 -9.6974 29.9415 0.1239 -14.1567 -9.4925 0.0243 2.2191 -6.1862 -3.7745 -1.6220 10.4953 -1.0455 -2.5602 2.2218 1.3105 -1.2885 -3.2020 0.2798 2.4729 -3.2498 1.2104 2.8826 6.8636 0.4114 1.4098 2.6979 -0.0000 0.0000 -0.0000 -78.0035 -17.9012 30.9703 17.4738 -26.9078 -4.6265 -0.0000 -0.0000 -6.5046 34.5853 17.0734 11.4666 -6.8176 0.0000 -0.0000 7.0076 49.0230 0.1429 0.0000 0.0000 0.0000 84.1870 -4.5154 21.9652 -11.8269 19.2061 -2.2985 0.0000 0.0000 18.3455 -17.1128 14.2577 -4.4921 6.8176 0.0000 0.0000 6.2819 -13.8290 4.5806
-0.6394 17.2483 -24.0230 2.5839 -29.8060 3.6412 -0.0000 0.0000 -0.0000 -28.1041 -0.8341 8.2622 0.4568 5.0443 13.5921 0.4533 3.1510 -12.9917 1.6081 -8.9994 -25.7792 -0.0000 -0.0000 -0.0000 11.9796 18.3795 -22.3236 -3.1053 -9.1512 27.9302 0.1280 -13.5790 -9.1612 -0.0202 1.9809 -5.5151 -3.8661 -1.7485 10.3649 -1.0129 -2.7359 2.1899 1.4037 -1.3760 -3.1473 0.2357 2.3749 -3.2192 1.1969 2.7711 6.6508 0.4148 1.3490 2.6277 -0.0000 0.0000 -0.0000 -77.7488 -18.1148 31.0567 17.6554 -27.1230 -4.7247 -0.0000 -0.0000 -6.6666 34.5536 17.1101 11.5247 -6.7981 0.0000 -0.0000 7.0413 49.0129 0.2222 0.0000 0.0000 0.0000 83.8405 -4.5884 21.8236 -11.8301 19.1701 -2.3261 0.0000 0.0000 18.0903 -17.1818 14.2124 -4.5167 6.7981 0.0000 0.0000 6.1869 -13.7799 4.5082
-0.6929 17.1649 -23.9108 2.7631 -29.9929 3.8627 -0.0000 0.0000 -0.0000 -28.0423 -0.6056 9.3166 0.2826 4.7661 12.6196 0.4697 2.4369 -12.4963 1.7038 -9.4926 -27.2025 -0.0000 -0.0000 -0.0000 11.8774 18.7665 -22.3884 -2.7018 -8.6191 25.9736 0.1336 -13.1408 -9.1821 -0.0467 1.9042 -5.2982 -3.9781 -1.7663 10.2821 -1.0390 -2.7732 2.1536 1.4425 -1.3938 -3.1384 0.0818 2.4580 -3.1070 1.3695 2.9028 5.9409 0.5272 1.3847 2.4052 -0.0000 0.0000 -0.0000 -77.3604 -18.3391 30.9766 17.8355 -27.3364 -4.8230 -0.0000 -0.0000 -6.8637 34.6101 17.1821 11.6780 -6.7715 0.0000 -0.0000 7.2444 49.0512 0.3562 0.0000 0.0000 0.0000 83.5138 -4.5396 22.0480 -11.7886 19.0684 -2.3383 0.0000 0.0000 17.9106 -17.1904 14.1272 -4.5155 6.7715 0.0000 0.0000 6.1133 -13.7474 4.4480
-0.7146 17.1099 -23.6700 2.8400 -30.3969 4.0177 -0.0000 0.0000 -0.0000 -28.0958 -0.1185 10.0309 0.1284 4.5132 11.7417 0.4649 2.0827 -12.3178 1.7794 -9.7176 -27.8708 0.0000 -0.0000 -0.0000 11.7890 19.4283 -22.5338 -2.2969 -8.1065 24.0611 0.1349 -12.7919 -9.3373 -0.0842 1.9250 -5.3558 -4.0641 -1.9822 10.1517 -0.9595 -3.0621 2.1527 1.5901 -1.5380 -3.0383 0.1754 2.2161 -3.2257 1.1574 2.5758 6.4458 0.3983 1.2519 2.5700 0.0000 -0.0000 0.0000 -77.2132 -18.6945 31.4144 18.1733 -27.7822 -4.9725 0.0000 0.0000 -7.1123 34.6014 17.0434 11.6354 -6.7590 -0.0000 0.0000 7.3303 48.8903 0.3764 0.0000 0.0000 0.0000 83.2194 -4.7759 21.4942 -11.8084 19.0684 -2.3635 0.0000 0.0000 17.7588 -17.1971 14.1582 -4.5398 6.7590 0.0000 0.0000 6.0798 -13.6568 4.4297
-0.5007 17.1003 -23.5858 2.9331 -30.6448 4.0561 -0.0000 0.0000 -0.0000 -27.9163 0.1267 11.0534 -0.0167 4.2479 10.8485 0.4549 1.7917 -11.7515 1.8951 -10.2365 -29.3762 0.0000 -0.0000 -0.0000 11.7096 20.0073 -22.4930 -1.9116 -7.6275 22.2668 0.1464 -12.5052 -9.7798 -0.1171 1.7837 -4.9549 -4.0242 -2.0367 10.0614 -0.8741 -3.1316 2.1107 1.6664 -1.5704 -3.0465 0.2128 2.3883 -3.2469 0.9424 2.8709 6.3940 0.3512 1.3914 2.5238 0.0000 -0.0000 0.0000 -77.2491 -18.8903 31.5143 18.4664 -28.1869 -5.0892 0.0000 0.0000 -7.1041 34.5040 17.0459 11.5592 -6.7597 -0.0000 0.0000 7.1226 48.8398 0.3402 0.0000 0.0000 0.0000 83.2007 -5.0113 21.0943 -11.6192 18.7725 -2.3069 0.0000 0.0000 17.7919 -17.2934 14.1318 -4.5650 6.7597 0.0000 0.0000 6.0196 -13.6754 4.3781
-0.6519 17.1463 -23.3231 2.7989 -30.9110 3.9565 0.0000 -0.0000 -0.0000 -27.7851 0.7360 11.6224 -0.2384 3.9157 9.6620 0.4419 1.6518 -11.5380 2.0570 -10.9005 -31.3225 0.0000 -0.0000 -0.0000 11.9004 20.8504 -22.2890 -1.5299 -7.1741 20.5441 0.1387 -11.5712 -9.5571 -0.1856 1.4773 -4.0896 -4.1045 -2.3997 9.9357 -0.7160 -3.6125 2.1144 1.9025 -1.8102 -2.9264 0.3813 1.7259 -3.1894 0.6145 2.0102 7.1460 0.1543 1.0041 2.7313 0.0000 -0.0000 0.0000 -77.4643 -19.0090 31.7639 18.7568 -28.5617 -5.2210 0.0000 0.0000 -7.4637 34.6850 16.9548 11.5234 -6.7901 -0.0000 0.0000 7.1726 48.8931 0.3160 0.0000 0.0000 0.0000 83.2690 -5.3000 20.3472 -11.8534 19.0754 -2.4101 0.0000 0.0000 17.5286 -17.5232 14.3476 -4.6877 6.7901 0.0000 0.0000 5.9535 -13.5585 4.3456
-0.6114 17.1245 -23.1308 2.8751 -31.0000 3.9184 0.0000 -0.0000 -0.0000 -27.5355 0.7937 12.6214 -0.4503 3.5540 8.4286 0.4566 1.1891 -10.8875 2.1834 -11.6842 -33.5768 0.0000 -0.0000 -0.0000 11.8827 21.2923 -22.1088 -1.2691 -6.8328 19.2898 0.1271 -10.8529 -9.6190 -0.1962 1.4740 -4.0784 -4.2075 -2.4001 9.8906 -0.7433 -3.6277 2.0664 1.9359 -1.8154 -2.9593 0.1866 1.8386 -2.9848 0.8041 2.2212 6.1328 0.3040 1.0644 2.3948 0.0000 -0.0000 0.0000 -77.1867 -19.3793 31.7991 19.1519 -29.1054 -5.3796 0.0000 0.0000 -7.8745 34.9446 16.8388 11.6000 -6.7853 -0.0000 0.0000 7.5253 48.7672 0.3723 0.0000 0.0000 0.0000 83.2981 -5.3624 20.3995 -11.6499 18.7485 -2.3547 0.0000 0.0000 17.6356 -17.5403 14.3014 -4.6851 6.7853 0.0000 0.0000 5.9311 -13.5820 4.3218
-0.3815 17.0876 -22.9181 2.9423 -31.0881 3.9993 0.0000 -0.0000 -0.0000 -27.4870 0.7601 13.3923 -0.6778 3.1723 7.1263 0.4703 0.8003 -10.3071 2.2247 -11.9186 -34.2467 0.0000 -0.0000 -0.0000 11.7267 21.9185 -22.0534 -1.0499 -6.5413 18.2209 0.1101 -10.2131 -9.8551 -0.1946 1.7960 -4.9859 -4.3004 -2.4083 9.8197 -0.7681 -3.6498 2.0371 1.9682 -1.8245 -2.9554 0.0932 2.0206 -2.8452 0.8907 2.5135 5.6181 0.3911 1.1815 2.2148 0.0000 -0.0000 0.0000 -76.9297 -19.6803 31.8954 19.5221 -29.6125 -5.5304 0.0000 0.0000 -8.1566 35.2845 16.7247 11.7897 -6.7744 -0.0000 0.0000 8.1367 48.7490 0.5279 0.0000 0.0000 0.0000 83.2523 -5.4510 20.3359 -11.4830 18.4920 -2.3031 0.0000 0.0000 17.7364 -17.5200 14.2448 -4.6692 6.7744 0.0000 0.0000 5.9165 -13.5941 4.3068
0.0643 17.0534 -22.7398 2.8538 -31.4101 4.0866 0.0000 -0.0000 -0.0000 -27.6405 0.5839 13.8044 -0.9196 2.7807 5.7817 0.4740 0.5267 -9.7928 2.1649 -11.4711 -32.9529 0.0000 -0.0000 -0.0000 11.5388 22.6646 -21.9562 -0.8343 -6.2586 17.1748 0.0901 -9.6801 -10.2068 -0.1874 2.4637 -6.8697 -4.3177 -2.4365 9.7150 -0.7640 -3.6863 2.0362 1.9873 -1.8418 -2.8964 0.1626 2.2498 -2.8779 0.7843 2.8500 5.8739 0.3600 1.3522 2.2848 0.0000 -0.0000 0.0000 -76.8375 -19.9086 32.3045 19.8946 -30.1233 -5.6822 0.0000 0.0000 -8.3944 35.6772 16.6025 12.0460 -6.7655 -0.0000 0.0000 8.9185 48.8242 0.7495 0.0000 0.0000 0.0000 83.1859 -5.5617 20.1057 -11.4382 18.4212 -2.2908 0.0000 0.0000 17.7888 -17.5007 14.1903 -4.6486 6.7655 0.0000 0.0000 5.9040 -13.6136 4.2966
0.2259 16.9430 -22.5742 2.8161 -31.4849 4.0948 0.0000 0.0000 -0.0000 -27.4779 0.1120 14.3036 -1.1760 2.3374 4.2859 0.4472 0.5991 -9.1176 2.0661 -10.8659 -31.2061 0.0000 -0.0000 -0.0000 11.2948 23.0886 -21.5710 -0.7147 -6.0890 16.5543 0.0894 -9.0664 -10.4322 -0.1728 3.0192 -8.4337 -4.3827 -2.4737 9.5860 -0.7695 -3.7392 2.0399 2.0202 -1.8671 -2.8137 0.1406 2.2266 -2.8784 0.7976 2.8247 5.8685 0.3582 1.3467 2.2899 0.0000 -0.0000 0.0000 -76.2551 -20.2966 33.0770 20.5157 -31.0106 -5.9119 0.0000 0.0000 -8.9438 35.6704 15.9786 11.7807 -6.7261 -0.0000 0.0000 9.2554 47.9848 0.6643 0.0000 0.0000 0.0000 82.8865 -5.7310 19.5424 -11.0641 17.8764 -2.1601 0.0000 0.0000 18.0127 -17.2978 14.0094 -4.5501 6.7261 0.0000 0.0000 5.9308 -13.6506 4.3104
0.0591 16.8631 -22.3381 2.8100 -30.8916 3.9627 0.0000 0.0000 -0.0000 -27.0731 -0.5008 15.3554 -1.4971 1.8105 2.4764 0.4020 0.7845 -8.3020 2.0379 -10.7253 -30.7996 -0.0000 -0.0000 -0.0000 11.0231 23.1973 -21.0440 -0.6424 -5.9856 16.1763 0.1151 -8.5299 -10.4125 -0.1744 3.0651 -8.5569 -4.5146 -2.4370 9.5067 -0.8190 -3.7073 2.0177 2.0418 -1.8488 -2.8023 -0.0613 2.1641 -2.6926 1.0388 2.7613 5.0860 0.4907 1.2902 2.0436 0.0000 -0.0000 0.0000 -75.6850 -20.4810 33.4954 21.0452 -31.7704 -6.1061 0.0000 0.0000 -9.6584 35.5488 15.4583 11.4209 -6.6976 -0.0000 0.0000 9.1995 47.1600 0.4975 0.0000 0.0000 0.0000 82.8080 -5.8529 19.2089 -10.5589 17.1353 -1.9846 0.0000 0.0000 18.3034 -17.1614 13.8050 -4.4588 6.6976 0.0000 0.0000 5.9413 -13.7535 4.3031
